HIERARCHY
ROOT Hips
{
	OFFSET -1.602300 6.242603 43.997101
	CHANNELS 6 Xposition Yposition Zposition Zrotation Xrotation Yrotation
	JOINT Chest
	{
		OFFSET -0.204900 1.598101 7.917301
		CHANNELS 6 Xposition Yposition Zposition Zrotation Xrotation Yrotation
		JOINT Chest2
		{
			OFFSET 0.000000 0.000000 3.404099
			CHANNELS 6 Xposition Yposition Zposition Zrotation Xrotation Yrotation
			JOINT Neck
			{
				OFFSET 0.000000 0.000000 7.928600
				CHANNELS 6 Xposition Yposition Zposition Zrotation Xrotation Yrotation
				JOINT Head
				{
					OFFSET 0.000000 0.000000 2.173897
					CHANNELS 6 Xposition Yposition Zposition Zrotation Xrotation Yrotation
					End Site
					{
						OFFSET 0.000000 0.000001 10.404503
					}
				}
			}
			JOINT LeftCollar
			{
				OFFSET 2.833800 -1.396299 4.843300
				CHANNELS 6 Xposition Yposition Zposition Zrotation Xrotation Yrotation
				JOINT LeftShoulder
				{
					OFFSET 4.363600 0.000000 0.000000
					CHANNELS 6 Xposition Yposition Zposition Zrotation Xrotation Yrotation
					JOINT LeftElbow
					{
						OFFSET 0.000000 -0.000001 -10.306900
						CHANNELS 6 Xposition Yposition Zposition Zrotation Xrotation Yrotation
						JOINT LeftWrist
						{
							OFFSET 0.000000 -0.000001 -12.404900
							CHANNELS 6 Xposition Yposition Zposition Zrotation Xrotation Yrotation
							End Site
							{
								OFFSET 0.000000 0.000000 -2.173901
							}
						}
					}
				}
			}
			JOINT RightCollar
			{
				OFFSET -2.354800 -1.897200 5.063099
				CHANNELS 6 Xposition Yposition Zposition Zrotation Xrotation Yrotation
				JOINT RightShoulder
				{
					OFFSET -4.375800 0.000000 0.000000
					CHANNELS 6 Xposition Yposition Zposition Zrotation Xrotation Yrotation
					JOINT RightElbow
					{
						OFFSET 0.000000 -0.000001 -10.005001
						CHANNELS 6 Xposition Yposition Zposition Zrotation Xrotation Yrotation
						JOINT RightWrist
						{
							OFFSET 0.000000 -0.000001 -13.174900
							CHANNELS 6 Xposition Yposition Zposition Zrotation Xrotation Yrotation
							End Site
							{
								OFFSET 0.000000 0.000000 -2.173901
							}
						}
					}
				}
			}
		}
	}
	JOINT LeftHip
	{
		OFFSET 2.240600 0.386800 -2.614101
		CHANNELS 6 Xposition Yposition Zposition Zrotation Xrotation Yrotation
		JOINT LeftKnee
		{
			OFFSET 0.000000 -0.000001 -18.592899
			CHANNELS 6 Xposition Yposition Zposition Zrotation Xrotation Yrotation
			JOINT LeftAnkle
			{
				OFFSET 0.000000 -0.000001 -18.765800
				CHANNELS 6 Xposition Yposition Zposition Zrotation Xrotation Yrotation
				End Site
				{
					OFFSET 0.000000 -8.655000 0.000000
				}
			}
		}
	}
	JOINT RightHip
	{
		OFFSET -2.014900 -0.220900 -2.615898
		CHANNELS 6 Xposition Yposition Zposition Zrotation Xrotation Yrotation
		JOINT RightKnee
		{
			OFFSET 0.000000 -0.000001 -18.633900
			CHANNELS 6 Xposition Yposition Zposition Zrotation Xrotation Yrotation
			JOINT RightAnkle
			{
				OFFSET 0.000000 -0.000001 -18.285101
				CHANNELS 6 Xposition Yposition Zposition Zrotation Xrotation Yrotation
				End Site
				{
					OFFSET 0.000000 -7.524500 0.000000
				}
			}
		}
	}
}
MOTION
Frames: 5
Frame Time: 0.041667
-5.477798 23.243198 8.926208 5.933513 27.867474 4.791655 -0.204901 1.598100 7.917307 -5.110841 2.662720 -5.973377 -0.000001 0.000000 3.404099 0.349099 -18.122466 -1.831303 -0.000001 0.000002 7.928604 2.575698 -12.389730 -0.616947 -0.000000 0.000004 2.173898 0.162317 -11.174662 -0.486243 2.833800 -1.396299 4.843308 19.254775 3.000509 2.055677 4.363600 0.000011 -0.000005 -78.632300 5.621173 -140.349678 -0.000001 0.000000 -10.306894 244.244423 -169.818269 186.718384 0.000002 -0.000003 -12.404898 -497.626491 182.234488 -175.306422 -2.354801 -1.897202 5.063109 6.811460 13.638058 -0.963779 -4.375800 0.000004 -0.000016 93.976197 -13.197994 160.605765 0.000002 -0.000002 -10.004990 15.612856 -179.951333 -182.628713 0.000001 0.000002 -13.174890 -293.836896 -196.074937 171.594515 2.240599 0.386803 -2.614103 148.080714 -24.324563 120.692325 -0.000001 -0.000001 -18.592896 -107.478470 37.665403 139.963089 -0.000000 -0.000000 -18.765797 9.798526 34.664576 -24.965818 -2.014894 -0.220896 -2.615904 -124.658944 -4.634040 -115.335886 -0.000000 0.000001 -18.633883 184.417430 24.967036 -182.800232 -0.000007 -0.000004 -18.285088 -7.491808 36.780101 -222.427651
-5.475399 23.229803 8.938812 6.001759 27.666586 4.692182 -0.204900 1.598102 7.917305 -5.189932 2.595377 -5.918332 0.000000 0.000001 3.404099 0.371603 -18.051719 -1.825153 -0.000000 0.000004 7.928601 3.156693 -12.278511 -0.947480 -0.000001 0.000005 2.173898 -0.094044 -11.060602 0.147721 2.833801 -1.396297 4.843303 19.558877 2.638924 1.979332 4.363599 0.000007 -0.000005 -77.014324 7.240292 -140.307563 -0.000002 0.000003 -10.306892 246.606493 -169.167666 187.075166 -0.000003 0.000001 -12.404898 -497.661735 182.627306 -174.935474 -2.354800 -1.897200 5.063104 6.721414 13.539681 -0.948850 -4.375798 0.000003 -0.000013 94.272293 -12.780785 160.468970 0.000003 -0.000002 -10.004992 16.111108 -179.748517 -182.478968 -0.000002 0.000001 -13.174891 -296.272651 -195.980653 171.654730 2.240600 0.386807 -2.614106 147.954274 -24.474794 120.455591 0.000000 -0.000001 -18.592894 -107.482664 37.598644 139.962666 0.000001 0.000001 -18.765799 9.885128 34.606806 -25.270911 -2.014896 -0.220899 -2.615898 -124.685295 -4.814375 -115.152604 0.000000 0.000000 -18.633881 184.426610 24.966126 -182.765699 -0.000007 -0.000005 -18.285086 -7.477852 36.795407 -222.486104
-5.473999 23.218102 8.950809 6.039837 27.681194 4.626595 -0.204901 1.598101 7.917307 -5.260740 2.276020 -5.920833 -0.000000 0.000004 3.404105 0.433602 -17.951592 -1.810079 -0.000001 -0.000000 7.928601 3.569046 -12.112506 -1.157179 -0.000001 0.000001 2.173906 -0.290773 -10.977947 0.612593 2.833800 -1.396300 4.843305 19.970751 2.366269 1.602407 4.363599 0.000011 -0.000008 -75.176457 8.836111 -140.348503 0.000000 -0.000000 -10.306896 249.243192 -168.538565 187.348223 -0.000000 -0.000003 -12.404894 -497.543108 182.767502 -174.372653 -2.354801 -1.897203 5.063104 6.729765 13.521677 -1.015662 -4.375801 0.000004 -0.000016 94.318765 -12.262594 160.378852 0.000004 -0.000002 -10.004991 16.225418 -179.577066 -182.350806 -0.000002 0.000002 -13.174893 -298.530193 -195.881684 171.837492 2.240599 0.386803 -2.614106 147.897119 -24.438868 120.366566 0.000000 -0.000002 -18.592896 -107.497438 37.519319 139.963567 0.000001 0.000001 -18.765799 9.986443 34.539696 -25.590359 -2.014894 -0.220897 -2.615899 -124.711140 -4.840654 -115.141990 -0.000000 0.000004 -18.633884 184.444778 24.966119 -182.729226 -0.000007 -0.000008 -18.285086 -7.463916 36.804051 -222.529284
-5.473299 23.209299 8.961414 6.070818 27.679144 4.564548 -0.204901 1.598101 7.917307 -5.322935 1.978686 -5.919822 -0.000000 -0.000000 3.404104 0.502732 -17.859406 -1.794779 0.000000 0.000006 7.928602 3.757316 -11.903918 -1.229072 0.000000 0.000004 2.173905 -0.384550 -10.950024 0.833581 2.833801 -1.396296 4.843301 20.282479 2.155037 1.320167 4.363599 0.000006 -0.000008 -73.911690 9.984425 -140.487361 0.000002 0.000000 -10.306898 250.885252 -168.015373 187.545971 0.000006 -0.000002 -12.404899 -497.355852 182.548936 -173.526570 -2.354801 -1.897198 5.063104 6.683781 13.467524 -1.029749 -4.375800 0.000004 -0.000014 94.335615 -11.785129 160.242959 0.000002 -0.000001 -10.004990 16.042328 -179.412691 -182.236974 0.000002 0.000004 -13.174891 -300.687849 -195.689824 171.751090 2.240598 0.386804 -2.614105 147.846152 -24.407450 120.277473 -0.000000 -0.000003 -18.592892 -107.507212 37.433204 139.955822 0.000002 0.000001 -18.765797 10.094200 34.474632 -25.869511 -2.014896 -0.220899 -2.615898 -124.721303 -4.856418 -115.124928 0.000000 0.000002 -18.633883 184.474831 24.964944 -182.691550 -0.000008 -0.000005 -18.285088 -7.451437 36.803197 -222.552944
-5.473400 23.202600 8.971008 6.096480 27.654360 4.508928 -0.204901 1.598097 7.917303 -5.378371 1.702608 -5.920894 -0.000001 0.000001 3.404104 0.570266 -17.776897 -1.781125 -0.000000 0.000005 7.928599 3.849064 -11.623536 -1.193945 0.000000 -0.000001 2.173905 -0.422897 -10.977000 0.896025 2.833800 -1.396297 4.843304 20.535387 2.001242 1.166505 4.363600 0.000007 -0.000004 -73.180006 10.765421 -140.684562 -0.000001 0.000002 -10.306897 251.760144 -167.596108 187.712668 0.000004 0.000000 -12.404897 -496.994562 182.419094 -172.913192 -2.354800 -1.897199 5.063105 6.698130 13.479215 -1.033405 -4.375800 0.000003 -0.000016 94.149622 -11.332038 160.135260 0.000004 -0.000001 -10.004991 15.385892 -179.326357 -182.167497 -0.000003 0.000004 -13.174896 -302.473944 -195.468348 171.608530 2.240599 0.386798 -2.614103 147.799297 -24.387590 120.184473 -0.000000 -0.000002 -18.592894 -107.520838 37.356395 139.945085 -0.000000 0.000000 -18.765797 10.177385 34.426312 -26.059234 -2.014896 -0.220902 -2.615905 -124.720798 -4.881888 -115.095996 0.000000 0.000000 -18.633888 184.507151 24.966426 -182.658096 -0.000008 -0.000008 -18.285088 -7.434894 36.797610 -222.569104
